HIERARCHY
ROOT Hips
{
 OFFSET 0.000000 0.000000 0.000000
 CHANNELS 6 Xposition Yposition Zposition Yrotation Xrotation Zrotation
 JOINT Chest
 {
  OFFSET 0.000000 9.585900 0.002600
  CHANNELS 3 Yrotation Xrotation Zrotation
  JOINT Chest2
  {
   OFFSET 0.000000 9.601200 -0.005300
   CHANNELS 3 Yrotation Xrotation Zrotation
   JOINT Chest3
   {
    OFFSET 0.000000 9.561800 0.000000
    CHANNELS 3 Yrotation Xrotation Zrotation
    JOINT Chest4
    {
     OFFSET 0.000000 9.552100 0.000000
     CHANNELS 3 Yrotation Xrotation Zrotation
     JOINT Neck
     {
      OFFSET 0.000000 14.453000 0.000000
      CHANNELS 3 Yrotation Xrotation Zrotation
      JOINT Head
      {
       OFFSET 0.000000 8.936500 -0.011300
       CHANNELS 3 Yrotation Xrotation Zrotation
       End Site
       {
        OFFSET 0.000000 17.073600 -0.006000
       }
      }
     }
     JOINT RightCollar
     {
      OFFSET -2.921100 9.558500 0.000000
      CHANNELS 3 Yrotation Xrotation Zrotation
      JOINT RightShoulder
      {
       OFFSET -13.519700 0.000000 0.000000
       CHANNELS 3 Yrotation Xrotation Zrotation
       JOINT RightElbow
       {
        OFFSET 0.000000 -29.696600 0.000000
        CHANNELS 3 Yrotation Xrotation Zrotation
        JOINT RightWrist
        {
         OFFSET 0.000000 -24.004700 0.000000
         CHANNELS 3 Yrotation Xrotation Zrotation
         End Site
         {
          OFFSET 0.000000 -17.728500 0.000000
         }
        }
       }
      }
     }
     JOINT LeftCollar
     {
      OFFSET 2.921100 9.558500 0.000000
      CHANNELS 3 Yrotation Xrotation Zrotation
      JOINT LeftShoulder
      {
       OFFSET 13.519700 0.000000 0.000000
       CHANNELS 3 Yrotation Xrotation Zrotation
       JOINT LeftElbow
       {
        OFFSET 0.000000 -29.696600 0.000000
        CHANNELS 3 Yrotation Xrotation Zrotation
        JOINT LeftWrist
        {
         OFFSET 0.000000 -24.004700 0.000000
         CHANNELS 3 Yrotation Xrotation Zrotation
         End Site
         {
          OFFSET 0.000000 -17.728500 0.000000
         }
        }
       }
      }
     }
    }
   }
  }
 }
 JOINT RightHip
 {
  OFFSET -7.771700 -0.012900 -0.001300
  CHANNELS 3 Yrotation Xrotation Zrotation
  JOINT RightKnee
  {
   OFFSET 0.000000 -40.869800 0.001200
   CHANNELS 3 Yrotation Xrotation Zrotation
   JOINT RightAnkle
   {
    OFFSET 0.000000 -39.717900 0.002100
    CHANNELS 3 Yrotation Xrotation Zrotation
    JOINT RightToe
    {
     OFFSET 0.000000 -4.965400 11.033500
     CHANNELS 3 Yrotation Xrotation Zrotation
     End Site
     {
      OFFSET 0.000000 -1.423100 5.872300
     }
    }
   }
  }
 }
 JOINT LeftHip
 {
  OFFSET 7.771700 -0.012900 -0.001300
  CHANNELS 3 Yrotation Xrotation Zrotation
  JOINT LeftKnee
  {
   OFFSET 0.000000 -40.869800 0.001200
   CHANNELS 3 Yrotation Xrotation Zrotation
   JOINT LeftAnkle
   {
    OFFSET 0.000000 -39.717900 0.002100
    CHANNELS 3 Yrotation Xrotation Zrotation
    JOINT LeftToe
    {
     OFFSET 0.000000 -4.965400 11.033500
     CHANNELS 3 Yrotation Xrotation Zrotation
     End Site
     {
      OFFSET 0.000000 -1.423100 5.872300
     }
    }
   }
  }
 }
}
MOTION
Frames: 16
Frame Time: 0.008333
-32.400397 46.881685 19.778072 176.985747 -30.821279 -4.054047 0.072531 18.487519 1.096049 0.052162 2.110288 0.127734 -0.028597 3.508321 0.213204 0.139959 16.126459 1.001805 -0.591333 14.994016 -3.203988 0.111154 -8.034431 -5.808231 0.195968 0.834666 -1.691054 5.448839 -7.250276 -15.016719 -50.990848 -60.892262 100.084625 -1.269626 4.927381 -19.048583 0.439620 -0.463507 1.841562 -4.150410 -3.023253 13.527375 65.873985 -65.524740 -105.948074 0.487351 12.362373 12.236752 -6.930613 -56.400415 -5.034979 -139.593815 79.167312 -130.734837 -7.279590 -18.011782 -6.104004 0.037006 -0.969834 -0.039626 -2.317082 -58.039535 12.278952 -110.583995 80.338310 -114.919260 6.321128 -6.690947 6.153224 -0.020875 -0.034184 -0.110401
-32.352876 46.895712 19.759392 176.949669 -30.806657 -4.001433 0.006045 18.487565 1.036352 0.063374 2.104628 0.123880 0.006480 3.502055 0.210526 0.140841 16.123606 0.994396 -0.573397 15.015541 -3.201085 0.174591 -7.839513 -5.782078 0.200514 0.832826 -1.694098 5.446733 -7.261429 -15.020121 -50.954055 -60.865045 100.028400 -1.276478 4.952079 -19.046571 0.424907 -0.455863 1.842733 -4.148235 -3.008752 13.502146 65.853046 -65.523062 -105.915401 0.493642 12.369919 12.252146 -7.013694 -56.416972 -5.157950 -139.317649 79.141081 -130.454824 -7.250605 -17.756229 -6.104208 0.020468 -0.991246 -0.081850 -2.251536 -58.048925 12.241944 -110.640454 80.306536 -114.956990 6.378400 -6.705917 6.155553 -0.072180 -0.051849 -0.126775
-32.314246 46.909419 19.743612 176.910473 -30.794101 -3.947153 -0.034684 18.487961 0.984753 0.061725 2.100408 0.121060 0.007205 3.499202 0.207630 0.142758 16.118414 0.981795 -0.532760 15.036897 -3.201588 0.216482 -7.699963 -5.745873 0.194102 0.825256 -1.701875 5.469003 -7.264814 -15.021316 -50.920080 -60.851574 100.008878 -1.312113 5.029725 -19.082284 0.463808 -0.454069 1.836689 -4.186687 -2.986453 13.477606 65.835525 -65.526417 -105.871285 0.481782 12.357959 12.270574 -7.070488 -56.432575 -5.284507 -139.157643 79.144629 -130.285533 -7.211779 -17.480701 -6.120612 0.011107 -1.014402 -0.108425 -2.220374 -58.042855 12.224488 -110.631647 80.290711 -114.952479 6.434694 -6.730861 6.154423 -0.096467 -0.058358 -0.119064
-32.279847 46.921911 19.732453 176.801915 -30.776278 -3.882280 -0.004352 18.481540 0.962029 0.056364 2.096002 0.117793 0.007163 3.495813 0.205235 0.103370 16.117808 0.969555 -0.468191 15.076860 -3.200146 0.258843 -7.619071 -5.719418 0.227004 0.813537 -1.721461 5.483465 -7.263980 -15.023041 -50.893192 -60.842604 100.003868 -1.311994 5.071332 -19.082371 0.499309 -0.447513 1.829091 -4.155348 -2.985577 13.452929 65.779135 -65.516170 -105.818256 0.518294 12.377984 12.274615 -7.084541 -56.458025 -5.354231 -139.172700 79.188367 -130.301314 -7.166924 -17.191566 -6.131412 -0.020325 -1.026541 -0.134315 -2.129643 -58.058553 12.215295 -110.739968 80.267583 -115.021116 6.459678 -6.747633 6.123890 -0.101268 -0.072135 -0.129511
-32.255593 46.935834 19.719460 176.779087 -30.782281 -3.844257 -0.048742 18.506693 0.923954 0.016681 2.104997 0.119832 0.046278 3.478843 0.196517 0.090151 16.117702 0.961280 -0.433136 15.114582 -3.189843 0.293241 -7.545550 -5.682050 0.260581 0.802806 -1.737435 5.485700 -7.263540 -15.024064 -50.887386 -60.832485 99.973674 -1.299519 5.113034 -19.063274 0.448611 -0.419108 1.834287 -4.069554 -3.009102 13.420330 65.762702 -65.520452 -105.789467 0.514185 12.370671 12.285952 -7.113614 -56.459938 -5.449352 -139.419057 79.256767 -130.574739 -7.133313 -16.886177 -6.109471 -0.066997 -1.046369 -0.161002 -2.070523 -58.050051 12.166165 -110.827854 80.261065 -115.079980 6.465268 -6.751412 6.114141 -0.099289 -0.086966 -0.142388
-32.225852 46.943010 19.720589 176.662545 -30.718192 -3.835391 0.011149 18.459047 0.970325 0.002467 2.107681 0.119963 0.055750 3.470538 0.190403 0.089546 16.112048 0.952965 -0.431586 15.199113 -3.128667 0.348383 -7.528507 -5.687154 0.281730 0.794579 -1.752038 5.486633 -7.263278 -15.024731 -50.892705 -60.828977 99.960719 -1.287055 5.148877 -19.051661 0.445639 -0.407648 1.833714 -4.126394 -2.965898 13.367870 65.871149 -65.565773 -105.799659 0.532436 12.379360 12.285407 -7.166013 -56.533085 -5.406687 -139.489796 79.385179 -130.576059 -7.139491 -16.494213 -6.219204 -0.015252 -1.084538 -0.138815 -2.079074 -58.113469 12.276201 -110.969807 80.261189 -115.192421 6.467460 -6.781050 6.092802 -0.110868 -0.085577 -0.125048
-32.205059 46.950376 19.720266 176.578835 -30.672253 -3.823529 0.039605 18.432754 0.998844 0.001456 2.105445 0.118628 0.055622 3.465309 0.185388 0.107946 16.101582 0.943010 -0.434499 15.235300 -3.090556 0.377933 -7.470655 -5.642782 0.255166 0.792885 -1.759199 5.476750 -7.261523 -15.025508 -50.878321 -60.836183 99.960600 -1.278942 5.166051 -19.027576 0.445269 -0.401466 1.833772 -4.160156 -2.941867 13.347815 65.798093 -65.563707 -105.739930 0.530787 12.346924 12.328933 -7.180926 -56.591649 -5.388279 -139.786099 79.539473 -130.837366 -7.161982 -16.106563 -6.281507 0.014172 -1.106436 -0.123858 -2.073874 -58.156164 12.335120 -111.091971 80.272687 -115.286464 6.462965 -6.806425 6.078016 -0.115606 -0.079719 -0.131960
-32.187304 46.958118 19.717907 176.531494 -30.648840 -3.839716 0.042208 18.430879 1.038590 0.000152 2.103194 0.117474 0.051797 3.463210 0.182462 0.126622 16.088787 0.930197 -0.438375 15.264458 -3.048322 0.409791 -7.460267 -5.650694 0.227624 0.798243 -1.765378 5.409039 -7.238951 -15.014957 -50.864149 -60.870601 100.013875 -1.272385 5.173602 -19.004456 0.407156 -0.376659 1.852921 -4.148616 -2.937415 13.314471 65.767724 -65.566359 -105.712268 0.540833 12.332092 12.353743 -7.213618 -56.620092 -5.332850 -140.108495 79.689036 -131.138050 -7.198452 -15.740291 -6.326593 0.051976 -1.107952 -0.101250 -2.115099 -58.176190 12.405591 -111.227440 80.286592 -115.391719 6.464258 -6.830416 6.050461 -0.120452 -0.072205 -0.139156
-32.181366 46.962721 19.716061 176.493777 -30.623303 -3.812417 0.045263 18.415149 1.028663 -0.022956 2.112068 0.122822 0.049218 3.459803 0.181152 0.073004 16.089916 0.926790 -0.384309 15.275539 -3.032289 0.427684 -7.406658 -5.568265 0.232152 0.801488 -1.797841 5.439316 -7.233893 -15.016775 -50.885009 -60.870986 100.001316 -1.254565 5.185667 -18.951828 0.436061 -0.363723 1.846243 -4.107354 -2.949443 13.282020 65.717777 -65.565855 -105.682284 0.548655 12.326878 12.362568 -7.199770 -56.663637 -5.384480 -140.737456 79.868020 -131.753146 -7.186762 -15.397279 -6.386378 0.047403 -1.092095 -0.088211 -2.089222 -58.197671 12.384313 -111.293156 80.304417 -115.446073 6.475919 -6.844231 6.041960 -0.124615 -0.070307 -0.134101
-32.181345 46.962921 19.716129 176.436444 -30.589342 -3.755962 0.057180 18.390037 0.997771 -0.039864 2.118799 0.129070 -0.001928 3.474473 0.192421 0.115285 16.065388 0.901740 -0.377159 15.289222 -2.989697 0.435371 -7.371730 -5.477891 0.203999 0.810096 -1.803741 5.451184 -7.220074 -15.024214 -50.886682 -60.871898 100.017325 -1.246882 5.178491 -18.938433 0.421683 -0.346279 1.858643 -4.077630 -2.957386 13.253257 65.672964 -65.571820 -105.656805 0.559999 12.324145 12.369062 -7.153055 -56.721448 -5.446841 -141.417989 80.034677 -132.426046 -7.175734 -15.108826 -6.462814 0.043063 -1.044388 -0.063245 -2.047615 -58.226748 12.329088 -111.399125 80.340585 -115.553999 6.510004 -6.861544 6.050446 -0.136635 -0.071561 -0.127016
-32.176334 46.961364 19.713943 176.376243 -30.580521 -3.736027 0.071995 18.399143 1.009024 -0.040080 2.113870 0.130885 -0.004542 3.473027 0.191790 0.126162 16.057245 0.890063 -0.384649 15.298977 -2.938166 0.442868 -7.363716 -5.413006 0.170542 0.817545 -1.799010 5.481782 -7.217014 -15.040828 -50.872902 -60.845103 99.980936 -1.234472 5.164323 -18.918431 0.403903 -0.331572 1.869654 -4.076257 -2.948738 13.233903 65.665814 -65.587919 -105.655250 0.547492 12.370689 12.315707 -7.162760 -56.745565 -5.435251 -142.148571 80.195463 -133.150506 -7.155495 -14.854113 -6.539420 0.016848 -0.995182 -0.046904 -2.021800 -58.238153 12.339564 -111.471343 80.340224 -115.594541 6.476812 -6.902217 6.052363 -0.084417 -0.036331 -0.148044
-32.178519 46.953855 19.713263 176.327049 -30.560478 -3.682594 0.065409 18.391741 0.980869 -0.043003 2.114496 0.133565 -0.007821 3.472264 0.191262 0.116523 16.053105 0.883956 -0.370410 15.298466 -2.915625 0.437768 -7.363809 -5.323529 0.184784 0.814320 -1.815394 5.484113 -7.206878 -15.048565 -50.864023 -60.818119 99.957542 -1.234394 5.151230 -18.909173 0.394318 -0.314531 1.882106 -4.090372 -2.914031 13.217893 65.756015 -65.608645 -105.726696 0.555370 12.349926 12.337046 -7.104185 -56.791644 -5.503756 -142.919383 80.333227 -133.911781 -7.143649 -14.654710 -6.602594 0.000714 -0.925454 -0.035787 -1.979054 -58.258009 12.284908 -111.570799 80.355763 -115.671578 6.487070 -6.922981 6.015331 -0.063398 -0.025425 -0.144797
-32.178935 46.942403 19.712497 176.284146 -30.545083 -3.642429 0.056737 18.391139 0.968057 -0.046945 2.112975 0.132765 -0.011803 3.472094 0.191342 0.101339 16.051428 0.875460 -0.361858 15.294099 -2.868960 0.442367 -7.375146 -5.255424 0.205498 0.808403 -1.832543 5.459484 -7.182263 -15.054193 -50.870881 -60.823099 99.997149 -1.235722 5.145081 -18.904571 0.378917 -0.294872 1.908071 -4.084108 -2.902319 13.186159 65.798628 -65.637164 -105.761897 0.573377 12.325069 12.360554 -7.045460 -56.809604 -5.535104 -143.400897 80.444379 -134.385049 -7.133311 -14.514447 -6.643989 0.000256 -0.830791 -0.025888 -1.959445 -58.274722 12.248198 -111.716766 80.375424 -115.796090 6.486804 -6.953855 6.006359 -0.049782 -0.015497 -0.126229
-32.178004 46.927798 19.711589 176.237532 -30.533283 -3.606598 0.021150 18.402677 0.964712 -0.020196 2.101450 0.121173 0.005039 3.466104 0.179839 0.063960 16.059653 0.886809 -0.362010 15.285708 -2.807887 0.457810 -7.395357 -5.209714 0.200449 0.807879 -1.845285 5.458065 -7.163291 -15.068172 -50.868852 -60.832862 100.036777 -1.287065 5.131906 -18.927582 0.381482 -0.285805 1.919994 -4.086503 -2.890339 13.158350 65.818334 -65.673055 -105.780957 0.579968 12.326612 12.365766 -6.986489 -56.828727 -5.537290 -143.664481 80.510216 -134.653056 -7.115787 -14.392301 -6.664301 0.001730 -0.749189 -0.017712 -1.953586 -58.288655 12.231791 -111.920010 80.407004 -115.978137 6.461947 -6.987487 5.993832 -0.034926 0.001380 -0.132233
-32.180434 46.910246 19.711505 176.189838 -30.512931 -3.549987 0.002469 18.395620 0.943830 -0.014624 2.098685 0.116462 -0.010872 3.469982 0.186091 0.048899 16.056963 0.874833 -0.352569 15.274685 -2.763947 0.461650 -7.418063 -5.142856 0.153882 0.826813 -1.832790 5.507996 -7.159732 -15.114843 -50.864630 -60.812231 100.055509 -1.312143 5.123293 -18.937150 0.386618 -0.277288 1.935465 -4.092925 -2.872949 13.129040 65.839025 -65.710077 -105.797168 0.529964 12.384176 12.315991 -6.884916 -56.861674 -5.549616 -143.602397 80.519921 -134.602144 -7.106986 -14.292933 -6.673001 0.026475 -0.674403 0.002136 -1.964253 -58.302476 12.192052 -112.097501 80.461387 -116.157950 6.464181 -7.016944 5.974873 -0.042668 0.018005 -0.138059
-32.182610 46.893425 19.709142 176.157248 -30.504698 -3.504549 0.001652 18.391942 0.919882 -0.035683 2.106565 0.130642 -0.027865 3.473435 0.193345 0.031399 16.053665 0.866239 -0.345280 15.262567 -2.724738 0.462781 -7.443374 -5.077073 0.140587 0.839305 -1.839401 5.521518 -7.151779 -15.147300 -50.850885 -60.746508 100.041243 -1.273862 5.129483 -18.914073 0.418688 -0.280184 1.915822 -4.130640 -2.843410 13.131095 65.849109 -65.742627 -105.803187 0.507047 12.412704 12.299711 -6.810283 -56.872109 -5.581925 -143.518736 80.525585 -134.522408 -7.072685 -14.170139 -6.694863 0.039138 -0.651719 0.019970 -1.907693 -58.315222 12.134142 -112.238685 80.465188 -116.263843 6.435914 -7.054616 5.951281 -0.012646 0.041461 -0.125598
